<svg width="152" height="148" viewBox="0 0 152 148" fill="none" xmlns="http://www.w3.org/2000/svg">
<path d="M23.2439 10.0983L34.7589 14.7865L39.5862 26.2439L34.898 37.7589L23.4406 42.5862L11.9256 37.898L7.09833 26.4406L11.7865 14.9256L23.2439 10.0983Z" fill="black"/>
<rect x="47" y="10" width="73" height="4" fill="black"/>
<rect x="47" y="10" width="73" height="4" fill="black"/>
<rect x="47" y="17" width="88" height="4" fill="black"/>
<rect x="47" y="24" width="71" height="4" fill="black"/>
<rect x="47" y="31" width="96" height="4" fill="black"/>
<rect x="47" y="38" width="81" height="4" fill="black"/>
<rect x="8" y="52" width="79" height="32" rx="6" stroke="black" stroke-width="2"/>
<rect x="7" y="94" width="33" height="7" fill="black"/>
<rect x="7" y="104" width="49" height="7" fill="black"/>
<rect x="63" y="102" width="79" height="32" rx="7" stroke="black" stroke-width="2"/>
</svg>
